<svg xmlns="http://www.w3.org/2000/svg" width="544.2" height="544.2" viewBox="0 0 544.2 544.2"><g fill="#ffa515"><path d="M272.9 229.4c-12.2 0-22.2 10-22.2 22.2s10 22.2 22.2 22.2 22.2-10 22.2-22.2-10-22.2-22.2-22.2zM193.2 229.4c-12.2 0-22.2 10-22.2 22.2s10 22.2 22.2 22.2c12.9 0 23-10.1 22.2-22.2 0-12.2-10-22.2-22.2-22.2z"/><path d="M272.1 0C2.1 0 0 121.8 0 272.1s2.1 272.1 272.1 272.1 272.1-121.8 272.1-272.1S542.1 0 272.1 0zm15.8 379.4c-16.5 2.2-31.5 2.2-46.6 0-52.4 53.8-107.7 43-96.9 34.4 26.6-20.8 32.3-40.2 30.9-56-34.5-20.1-58.9-51-63.2-88.3-8.6-70.4 56.7-135 145-145 88.3-9.3 167.2 39.5 175.1 109.8 7.9 70.4-56.7 134.9-144.3 145.1z"/><path d="M352.5 229.4c-12.2 0-22.2 10-22.2 22.2s10 22.2 22.2 22.2 22.3-10.1 22.2-22.2c0-12.2-10-22.2-22.2-22.2z"/></g></svg>