<?xml version="1.0" encoding="iso-8859-1"?>
<!-- Generator: Adobe Illustrator 21.1.0, SVG Export Plug-In . SVG Version: 6.00 Build 0)  -->
<svg version="1.1" id="Layer_1" xmlns="http://www.w3.org/2000/svg" xmlns:xlink="http://www.w3.org/1999/xlink" x="0px" y="0px"
	 width="321.515px" height="297.54px" viewBox="0 0 321.515 297.54" style="enable-background:new 0 0 321.515 297.54;"
	 xml:space="preserve">
<g>
	<path d="M320.861,110.936c-7.9-70.3-86.8-119.1-175.1-109.8c-88.3,10-153.6,74.6-145,145
		c4.3,37.3,28.7,68.2,63.2,88.3c1.4,15.8-4.3,35.2-30.9,56c-10.8,8.6,44.5,19.4,96.9-34.4c15.1,2.2,30.1,2.2,46.6,0l0,0
		C264.161,245.836,328.761,181.336,320.861,110.936z M81.861,150.436c-12.2,0-22.2-10-22.2-22.2s10-22.2,22.2-22.2
		s22.2,10,22.2,22.2C104.861,140.336,94.761,150.436,81.861,150.436z M161.561,150.436c-12.2,0-22.2-10-22.2-22.2s10-22.2,22.2-22.2
		s22.2,10,22.2,22.2S173.761,150.436,161.561,150.436z M241.161,150.436c-12.2,0-22.2-10-22.2-22.2s10-22.2,22.2-22.2
		s22.2,10,22.2,22.2C263.461,140.336,253.361,150.436,241.161,150.436z"/>
</g>
</svg>
