<?xml version="1.0" encoding="utf-8"?>
<!-- Generator: Adobe Illustrator 18.1.1, SVG Export Plug-In . SVG Version: 6.00 Build 0)  -->
<!DOCTYPE svg PUBLIC "-//W3C//DTD SVG 1.1//EN" "http://www.w3.org/Graphics/SVG/1.1/DTD/svg11.dtd">
<svg version="1.1" id="Layer_1" xmlns="http://www.w3.org/2000/svg" xmlns:xlink="http://www.w3.org/1999/xlink" x="0px" y="0px"
	 viewBox="2037 614 83 83" enable-background="new 2037 614 83 83" xml:space="preserve">
<linearGradient id="SVGID_1_" gradientUnits="userSpaceOnUse" x1="3.0345" y1="594.2101" x2="2.8359" y2="593.9395" gradientTransform="matrix(594.1796 0 0 -594.1796 322.1971 353659.3438)">
	<stop  offset="0" style="stop-color:#FB872B"/>
	<stop  offset="1" style="stop-color:#FFE021"/>
</linearGradient>
<circle fill="url(#SVGID_1_)" cx="2078.5" cy="655.5" r="41.5"/>
<g>
	<path fill="#FFFFFF" d="M2100.9,651.5c-1.1-9.8-12.1-16.6-24.4-15.3c-12.3,1.4-21.4,10.4-20.2,20.2c0.6,5.2,4,9.5,8.8,12.3
		c0.2,2.2-0.6,4.9-4.3,7.8c-1.5,1.2,6.2,2.7,13.5-4.8c2.1,0.3,4.2,0.3,6.5,0C2093,670.3,2102,661.3,2100.9,651.5z M2067.6,657
		c-1.7,0-3.1-1.4-3.1-3.1c0-1.7,1.4-3.1,3.1-3.1s3.1,1.4,3.1,3.1C2070.8,655.6,2069.4,657,2067.6,657z M2078.7,657
		c-1.7,0-3.1-1.4-3.1-3.1c0-1.7,1.4-3.1,3.1-3.1s3.1,1.4,3.1,3.1C2081.8,655.6,2080.4,657,2078.7,657z M2089.8,657
		c-1.7,0-3.1-1.4-3.1-3.1c0-1.7,1.4-3.1,3.1-3.1s3.1,1.4,3.1,3.1C2092.9,655.6,2091.5,657,2089.8,657z"/>
</g>
</svg>
