<?xml version="1.0" encoding="utf-8"?>
<!-- Generator: Adobe Illustrator 18.1.1, SVG Export Plug-In . SVG Version: 6.00 Build 0)  -->
<!DOCTYPE svg PUBLIC "-//W3C//DTD SVG 1.1//EN" "http://www.w3.org/Graphics/SVG/1.1/DTD/svg11.dtd">
<svg version="1.1" id="Layer_1" xmlns="http://www.w3.org/2000/svg" xmlns:xlink="http://www.w3.org/1999/xlink" x="0px" y="0px"
	 viewBox="1795.3 502.5 320.8 324" enable-background="new 1795.3 502.5 320.8 324" xml:space="preserve">
<g>
	<path d="M2115.4,613c-8.2-70.2-86.4-119-174.6-109.2c-88.2,9.9-153,74.7-144.8,144.9c4.3,37.1,28.3,68.2,62.8,87.9
		c1.7,15.5-4,35.3-30.9,55.6c-11,8.3,44.5,19,96.3-34.5c14.9,1.8,30.4,2,46.3,0.2C2058.8,748,2123.6,683.1,2115.4,613z
		 M1877.5,652.8c-12.3,0-22.3-10-22.3-22.3c0-12.3,10-22.3,22.3-22.3c12.3,0,22.3,10,22.3,22.3
		C1899.8,642.8,1889.8,652.8,1877.5,652.8z M1956.8,652.8c-12.3,0-22.3-10-22.3-22.3c0-12.3,10-22.3,22.3-22.3
		c12.3,0,22.3,10,22.3,22.3C1979.1,642.8,1969.1,652.8,1956.8,652.8z M2036.1,652.8c-12.3,0-22.3-10-22.3-22.3
		c0-12.3,10-22.3,22.3-22.3c12.3,0,22.3,10,22.3,22.3C2058.4,642.8,2048.4,652.8,2036.1,652.8z"/>
</g>
</svg>
